<?xml version="1.0" standalone="no"?>
<!DOCTYPE svg PUBLIC "-//W3C//DTD SVG 20010904//EN"
 "http://www.w3.org/TR/2001/REC-SVG-20010904/DTD/svg10.dtd">
<svg version="1.0" xmlns="http://www.w3.org/2000/svg"
 width="700.000000pt" height="700.000000pt" viewBox="0 0 700.000000 700.000000"
 preserveAspectRatio="xMidYMid meet">
<metadata>
Created by potrace 1.11, written by Peter Selinger 2001-2013
</metadata>
<g transform="translate(0.000000,700.000000) scale(0.100000,-0.100000)"
fill="#000000" stroke="none">
<path d="M3275 5265 c-564 -91 -1047 -507 -1230 -1059 -119 -358 -107 -754 30
-988 l34 -57 -32 -10 c-30 -9 -445 -125 -1012 -282 -137 -38 -260 -73 -272
-79 -25 -10 -31 -47 -10 -55 6 -3 525 -4 1152 -3 l1140 3 -65 39 c-292 176
-499 476 -550 796 -12 81 -12 221 0 320 64 489 353 800 814 875 117 19 335 19
452 0 482 -78 764 -402 814 -934 19 -207 -12 -376 -105 -567 -96 -198 -237
-356 -419 -472 l-90 -57 1140 -3 c626 -1 1145 0 1152 3 20 8 14 45 -10 55 -13
6 -153 46 -313 91 -159 44 -396 109 -525 146 -129 36 -282 78 -340 94 -58 16
-110 31 -116 33 -8 3 4 36 32 93 79 158 107 337 92 575 -43 684 -563 1284
-1236 1429 -129 27 -399 35 -527 14z"/>
<path d="M768 2159 c-10 -5 -18 -19 -18 -29 0 -20 69 -45 290 -104 621 -165
1167 -259 1815 -312 294 -24 996 -24 1290 0 663 54 1235 154 1860 325 185 50
227 65 239 84 30 49 173 47 -2743 47 -1826 -1 -2722 -4 -2733 -11z"/>
</g>
</svg>
